<svg xmlns="http://www.w3.org/2000/svg" xmlns:xlink="http://www.w3.org/1999/xlink"><symbol viewBox="0 0 24 24" id="icon-chevron-down"><title>icon-chevron-down</title><path d="M7.115 8.295l-1.41 1.41 6 6 6-6-1.41-1.41-4.59 4.58z" fill="#FFF" fill-rule="nonzero"/></symbol><symbol viewBox="0 0 24 24" id="icon-chevron-left"><title>icon-chevron-left</title><path d="M15.41 16.59L14 18l-6-6 6-6 1.41 1.41L10.83 12z" fill-rule="nonzero" fill="#3A3F4E"/></symbol><symbol viewBox="0 0 24 24" id="icon-chevron-right"><title>icon-chevron-right</title><path d="M8 7.41L9.41 6l6 6-6 6L8 16.59 12.58 12z" fill-rule="nonzero" fill="#3A3F4E"/></symbol><symbol viewBox="0 0 24 24" id="icon-chevron-up"><title>icon-chevron-up</title><path d="M7.115 15.705l-1.41-1.41 6-6 6 6-1.41 1.41-4.59-4.58z" fill="#FFF" fill-rule="nonzero"/></symbol><symbol viewBox="0 0 24 24" id="icon-close"><title>icon-close</title><path d="M19 6.41L17.59 5 12 10.59 6.41 5 5 6.41 10.59 12 5 17.59 6.41 19 12 13.41 17.59 19 19 17.59 13.41 12z" fill="#FFF" fill-rule="nonzero"/></symbol><symbol viewBox="0 0 24 24" id="icon-menu"><title>icon-menu</title><path d="M3 18h18v-2H3v2zm0-5h18v-2H3v2zm0-7v2h18V6H3z" fill-rule="nonzero" fill="#FFF"/></symbol><symbol viewBox="0 0 24 24" id="icon-search"><title>icon-search</title><path d="M15.5 14h-.79l-.28-.27A6.471 6.471 0 0 0 16 9.5 6.5 6.5 0 1 0 9.5 16c1.61 0 3.09-.59 4.23-1.57l.27.28v.79l5 4.99L20.49 19l-4.99-5zm-6 0C7.01 14 5 11.99 5 9.5S7.01 5 9.5 5 14 7.01 14 9.5 11.99 14 9.5 14z" fill="#FFF" fill-rule="nonzero"/></symbol><symbol viewBox="0 0 72 16" id="logo"><title>logo-sm</title><path d="M0 15.733v-1.739h1.94V1.716H0V0h6.636c1.3 0 2.27.067 3.306.379 2.977.936 4.917 3.654 4.917 7.487 0 3.81-1.874 6.463-4.917 7.443-1.014.334-2.05.424-3.284.424H0zm4.145-1.828h2.38c1.014 0 1.852-.089 2.646-.4 2.094-.736 3.395-2.764 3.395-5.639 0-2.897-1.3-4.924-3.373-5.682-.86-.312-1.654-.357-2.668-.357h-2.38v12.078zM18.76 2.206h2.248V0h-2.248v2.206zm-1.698 13.527h5.644V14.06h-1.764V4.457h-3.99v1.671h1.852v7.933h-1.742v1.672zm7.165-5.638c0-3.588 2.403-5.906 5.577-5.906 3.175 0 4.828 2.363 4.828 5.282 0 .29-.066.824-.066.824H26.41c.133 2.496 1.874 3.833 3.858 3.833 1.94 0 3.33-1.27 3.33-1.27l.88 1.582S32.804 16 30.137 16c-3.505 0-5.908-2.563-5.908-5.905zm2.27-1.181h5.93c-.065-1.984-1.256-3.009-2.667-3.009-1.631 0-2.954 1.114-3.263 3.009zM37.83 11.61c0 3.766 2.844 4.212 4.255 4.212.462 0 .771-.045.771-.045v-1.805s-.198.022-.507.022c-.838 0-2.38-.29-2.38-2.585V6.13h2.667V4.456h-2.668V1.359h-2.094v3.098h-1.918v1.671h1.874v5.482zm12.345 4.123h6.107v-1.739H54.32V1.716h1.962V0h-6.107v1.716h1.94v12.278h-1.94v1.739zm8.223 0h5.644V14.06h-1.764v-3.565c0-2.25 1.477-4.323 3.726-4.323 1.785 0 2.094 1.248 2.094 2.83v6.73H72V14.06h-1.764V8.513c0-2.875-1.146-4.324-3.703-4.324-2.822 0-4.123 2.14-4.343 2.741h-.044s.066-.29.066-.646v-.58c0-.824-.441-1.247-1.411-1.247h-2.513v1.671h1.367c.308 0 .485.156.485.49v7.443h-1.742v1.672z" fill="#FFF" fill-rule="evenodd"/></symbol></svg>