<svg width="24" height="24" viewBox="0 0 24 24" xmlns="http://www.w3.org/2000/svg">
  <title>
    Vkontakte
  </title>
  <path d="M19.313 3H4.688C3.757 3 3 3.76 3 4.688v14.625C3 20.24 3.76 21 4.688 21h14.625C20.24 21 21 20.24 21 19.312V4.688C21 3.76 20.24 3 19.312 3zm-1.734 12.6l-1.647.025s-.355.07-.82-.25c-.614-.422-1.195-1.522-1.648-1.378-.457.144-.444 1.132-.444 1.132.002 0 .005.21-.1.32-.113.124-.338.15-.338.15h-.735s-1.624.098-3.056-1.394c-1.56-1.624-2.937-4.848-2.937-4.848s-.08-.21.007-.312c.098-.116.362-.123.362-.123l1.762-.01s.165.028.284.116c.1.07.15.206.15.206s.286.72.663 1.37c.735 1.27 1.08 1.548 1.33 1.414.36-.197.252-1.796.252-1.796s.007-.58-.182-.837c-.147-.2-.425-.26-.544-.275-.1-.014.063-.243.274-.348.316-.155.875-.165 1.537-.158.513.003.665.038.865.084.61.148.4.713.4 2.07 0 .438-.077 1.05.236 1.25.134.087.463.013 1.29-1.39.39-.664.685-1.444.685-1.444s.063-.14.162-.2c.103-.06.24-.042.24-.042l1.853-.01s.555-.066.646.187c.095.264-.206.88-.962 1.89-1.24 1.655-1.382 1.5-.348 2.456.984.914 1.188 1.36 1.224 1.416.4.675-.457.728-.457.728z" />
</svg>