<svg width="24" height="24" viewBox="0 0 24 24" xmlns="http://www.w3.org/2000/svg">
  <title>
    PDF
  </title>
  <g>
    <path d="M17.763 13.04c-.227-.264-.733-.402-1.502-.415-.52-.006-1.145.047-1.804.155-.295-.2-.6-.416-.838-.678-.642-.7-1.178-1.675-1.512-2.746.022-.1.04-.187.058-.277 0 0 .362-2.405.266-3.218-.013-.11-.02-.143-.047-.23l-.03-.095c-.1-.264-.293-.546-.595-.53L11.575 5c-.337 0-.612.2-.683.504-.22.946.007 2.36.416 4.194l-.104.298c-.294.838-.662 1.68-.986 2.425l-.043.098c-.342.782-.652 1.446-.933 2.008l-.29.18c-.02.013-.517.322-.634.404-.99.69-1.644 1.475-1.753 2.098-.034.198-.01.452.167.57l.28.165c.122.07.25.107.382.107.704 0 1.522-1.026 2.65-3.328 1.3-.495 2.78-.907 4.08-1.134.99.65 2.206 1.103 2.973 1.103.136 0 .254-.014.35-.044.146-.046.27-.144.346-.277.15-.264.18-.625.14-.995-.013-.11-.087-.245-.17-.34v.004zM7.24 17.424c.13-.41.638-1.224 1.39-1.945.047-.045.163-.173.27-.29-.786 1.466-1.313 2.05-1.66 2.234zm4.455-12c.227 0 .356.668.367 1.294.01.625-.115 1.065-.27 1.39-.128-.48-.19-1.24-.19-1.736 0 0-.01-.95.093-.95zm-1.33 8.55c.16-.33.323-.678.49-1.047.41-.905.667-1.613.86-2.194.382.813.858 1.506 1.418 2.06.07.07.144.14.22.208-1.138.264-2.122.584-2.988.974zm7.18-.074c-.07.053-.268.08-.395.08-.412 0-.923-.22-1.638-.58.275-.023.527-.035.754-.035.413 0 .536-.002.94.12.403.12.41.365.34.415z"/>
    <path d="M19.095 6.474c-.37-.59-.887-1.284-1.455-1.948-.567-.663-1.16-1.268-1.664-1.702-.86-.74-1.28-.824-1.518-.824h-8.28c-.736 0-1.335.7-1.335 1.563v16.875c0 .86.6 1.562 1.335 1.562h12.286c.736 0 1.335-.7 1.335-1.563V8.25c0-.28-.073-.77-.705-1.776zm-2.21-1.063c.512.6.913 1.14 1.21 1.59h-2.57V3.994c.383.347.846.817 1.358 1.417zm1.846 15.027c0 .17-.12.313-.266.313H6.178c-.144 0-.267-.142-.267-.313V3.563c0-.168.124-.312.268-.312h8.28v4.375c0 .345.24.625.534.625h3.74v12.188z" fill="currentColor"/>
  </g>
</svg>