<svg width="24" height="24" viewBox="0 0 24 24" xmlns="http://www.w3.org/2000/svg">
  <title>
    Twitter
  </title>
  <path d="M18.88 6.404c.764-.475 1.347-1.23 1.625-2.126-.713.44-1.505.76-2.344.933C17.487 4.465 16.528 4 15.466 4c-2.04 0-3.69 1.72-3.69 3.842 0 .3.032.592.095.875C8.8 8.555 6.08 7.027 4.26 4.7c-.316.566-.5 1.23-.5 1.93 0 1.334.65 2.512 1.64 3.2-.604-.02-1.173-.195-1.672-.48v.048c0 1.863 1.272 3.418 2.962 3.77-.31.087-.636.135-.974.135-.238 0-.468-.026-.696-.07.47 1.527 1.834 2.64 3.448 2.672-1.265 1.032-2.854 1.646-4.586 1.646-.3 0-.59-.017-.882-.054 1.638 1.094 3.578 1.727 5.662 1.727 6.79 0 10.506-5.858 10.506-10.937 0-.17-.004-.333-.01-.498.72-.537 1.346-1.215 1.84-1.987-.66.308-1.372.513-2.117.604z" />
</svg>