<svg width="72" height="16" viewBox="0 0 72 16" xmlns="http://www.w3.org/2000/svg">
  <title>
    Logo Diet In
  </title>
  <path d="M0 15.733v-1.74h1.94V1.717H0V0h6.636c1.3 0 2.27.067 3.306.38 2.977.935 4.917 3.653 4.917 7.486 0 3.81-1.875 6.463-4.918 7.443-1.014.333-2.05.423-3.284.423H0zm4.145-1.828h2.38c1.014 0 1.852-.09 2.646-.4 2.095-.736 3.396-2.764 3.396-5.64 0-2.896-1.3-4.923-3.373-5.68-.86-.313-1.654-.358-2.668-.358h-2.38v12.078zm14.616-11.7h2.25V0h-2.25v2.206zm-1.697 13.528h5.644V14.06h-1.764V4.458h-3.99v1.67h1.852v7.934h-1.742v1.673zm7.165-5.638c0-3.588 2.403-5.906 5.577-5.906 3.175 0 4.828 2.362 4.828 5.28 0 .29-.066.825-.066.825H26.41c.133 2.496 1.874 3.833 3.858 3.833 1.94 0 3.33-1.27 3.33-1.27l.88 1.582S32.804 16 30.137 16c-3.505 0-5.908-2.563-5.908-5.905zm2.27-1.18h5.93c-.065-1.985-1.256-3.01-2.667-3.01-1.63 0-2.953 1.114-3.262 3.01zM37.83 11.61c0 3.766 2.844 4.212 4.255 4.212.462 0 .77-.045.77-.045v-1.805s-.197.022-.506.022c-.84 0-2.382-.29-2.382-2.585V6.127h2.668v-1.67h-2.668v-3.1h-2.094v3.1h-1.918v1.67h1.874v5.482zm12.345 4.123h6.107v-1.74H54.32V1.717h1.962V0h-6.107v1.716h1.94v12.278h-1.94v1.74zm8.223 0h5.644V14.06h-1.764v-3.564c0-2.25 1.477-4.323 3.726-4.323 1.785 0 2.094 1.248 2.094 2.83v6.73H72V14.06h-1.764V8.514c0-2.875-1.146-4.324-3.703-4.324-2.822 0-4.123 2.14-4.343 2.74h-.044s.066-.29.066-.646v-.58c0-.824-.44-1.247-1.41-1.247h-2.514v1.67h1.367c.308 0 .485.157.485.49v7.444h-1.742v1.673z" />
</svg>